<svg width="17" height="13" viewBox="0 0 17 13" fill="none" xmlns="http://www.w3.org/2000/svg">
<path d="M5.49999 10.4586L14.9164 1.04141L14.9164 1.0414C15.0712 0.886619 15.2811 0.799664 15.5 0.799664C15.7189 0.799664 15.9288 0.88662 16.0836 1.0414C16.2384 1.19619 16.3253 1.40612 16.3253 1.62501C16.3253 1.84391 16.2384 2.05384 16.0836 2.20862L6.08367 12.2085L6.08359 12.2086L5.49999 10.4586ZM5.49999 10.4586L1.7086 6.66642L1.70859 6.6664C1.55381 6.51162 1.34388 6.42466 1.12498 6.42466C0.906085 6.42466 0.696155 6.51162 0.541373 6.6664C0.38659 6.82119 0.299634 7.03112 0.299634 7.25001C0.299634 7.46891 0.38659 7.67884 0.541372 7.83362L4.91629 12.2085L4.91637 12.2086L5.49999 10.4586Z" fill="#04D361" stroke="#1B873F" stroke-width="0.4"/>
</svg>
